<svg version="1.1" xmlns="http://www.w3.org/2000/svg" x="0" y="0" viewBox="0 0 785.5 268.7"><g id="logo"><path d="M732.4 85.1a32 32 0 1 0-64 0 32 32 0 0 0 64 0M700.4 0c-47 0-85.1 38.1-85.1 85.1h25.3a59.7 59.7 0 1 1 59.8 59.9v25.3a85.1 85.1 0 1 0 0-170.3" fill="#134094"/><path fill="#ae0a0d" d="M456.1 236h30.6v30.6h-30.6z"/><path fill="#3c4448" d="M20.2 222.3a62 62 0 0 0 38.1 16.2c14.5 0 21.7-5.7 21.7-15 0-9.8-8.8-12.9-22.4-18.6l-20-8.6c-16.2-6.4-31.4-19.7-31.4-42.4 0-25.7 23.1-46.2 55.2-46.2 17.9 0 36.7 7.1 50 20.5l-17.6 22.1a50.7 50.7 0 0 0-32.4-12.4c-11.9 0-19.8 5.2-19.8 14 0 9.5 10.2 12.9 23.8 18.3l19.8 8.1c18.8 7.6 30.7 20.2 30.7 42.1 0 25.7-21.4 48.1-58.3 48.1A85.8 85.8 0 0 1 0 246.1l20.2-23.8z"/><path fill="#3c4448" d="M152.6 168.8h-33v-27.6h99v27.6h-33v97h-33v-97z"/><path fill="#3c4448" d="M230.4 141.2h33v68.3c0 22.2 5.8 30.3 18.8 30.3s19.2-8.1 19.2-30.3v-68.3h31.8v64.4c0 42.6-16.1 62.5-51 62.5s-51.8-19.9-51.8-62.5v-64.4z"/><path  fill="#3c4448" d="M348.3 141.2h36.8c38 0 64.1 17.6 64.1 61.8 0 44.1-26.1 62.9-62.1 62.9h-38.7l-.1-124.7zm34.9 98.2c18 0 32.2-7.3 32.2-36.4s-14.2-35.3-32.2-35.3h-1.9v71.7h1.9z"/><path fill="#3c4448" d="M501.7 110.6h35.2v155.2h-35.2V110.6z"/><path fill="#3c4448" d="M553.6 110.6h56.7c33.8 0 60.7 12.4 60.7 50 0 36.4-27.9 52.6-60.7 52.6h-21.4v52.6h-35.2l-.1-155.2zm54.6 74.8c19.3 0 28.6-8.6 28.6-24.8 0-16.2-10-22.1-28.6-22.1h-19.3v46.9h19.3z"/></g></svg>
